<svg width="121" height="111" viewBox="0 0 121 111" fill="none" xmlns="http://www.w3.org/2000/svg">
<path d="M45.3084 104.69L44.6637 105.425C44.3541 105.024 43.9658 104.706 43.5283 104.496C43.267 104.4 43.058 104.443 42.994 104.657C42.7656 105.417 44.9995 105.758 44.5214 107.349C44.2571 108.231 43.4122 108.437 42.5246 108.11C41.8654 107.863 41.2996 107.379 40.9169 106.736L41.5682 106.018C41.8551 106.552 42.29 106.969 42.8082 107.208C43.1266 107.326 43.3657 107.267 43.4412 107.015C43.6754 106.235 41.4318 105.926 41.9003 104.366C42.1442 103.554 42.9302 103.27 43.8855 103.623C44.4401 103.825 44.9328 104.195 45.3084 104.69Z" fill="white"/>
<path d="M49.2768 106.196L48.6205 109.813L47.5752 109.58L48.2324 105.964L47.006 105.692L47.1763 104.757L50.6851 105.537L50.5157 106.472L49.2768 106.196Z" fill="white"/>
<path d="M55.0189 108.848C55.0122 108.921 54.9926 108.991 54.9611 109.055C54.9297 109.12 54.887 109.176 54.8357 109.222C54.7843 109.268 54.7252 109.302 54.6619 109.323C54.5985 109.343 54.5321 109.349 54.4666 109.341C54.401 109.333 54.3375 109.311 54.2798 109.275C54.2221 109.24 54.1714 109.192 54.1305 109.135C54.0896 109.077 54.0593 109.012 54.0415 108.941C54.0237 108.871 54.0187 108.797 54.0267 108.725C54.0308 108.652 54.0487 108.581 54.0792 108.516C54.1097 108.451 54.1521 108.394 54.2037 108.349C54.2553 108.303 54.315 108.27 54.3788 108.251C54.4427 108.233 54.5094 108.229 54.5746 108.241C54.6409 108.245 54.7056 108.265 54.7647 108.299C54.8237 108.332 54.8758 108.379 54.9176 108.436C54.9594 108.493 54.99 108.559 55.0074 108.63C55.0248 108.701 55.0287 108.775 55.0189 108.848Z" fill="white"/>
<path d="M60.5493 106.029C61.4872 105.971 62.1077 106.384 62.1434 107.091C62.1571 107.326 62.0987 107.558 61.9778 107.751C61.8568 107.943 61.6805 108.085 61.4775 108.153C61.7273 108.184 61.9584 108.314 62.1277 108.519C62.2969 108.725 62.3927 108.992 62.3971 109.27C62.4357 110.057 61.8396 110.59 60.8542 110.651L58.8051 110.778L58.5718 106.151L60.5493 106.029ZM59.7227 107.936L60.5832 107.883C60.8939 107.865 61.0816 107.667 61.0662 107.37C61.0517 107.072 60.8454 106.913 60.5348 106.932L59.6753 106.984L59.7227 107.936ZM59.8166 109.808L60.677 109.754C61.071 109.729 61.3072 109.523 61.2898 109.193C61.2743 108.882 61.0197 108.705 60.6258 108.729L59.7653 108.783L59.8166 109.808Z" fill="white"/>
<path d="M66.8552 108.477L66.8262 108.484L66.0325 108.653L66.2552 109.935L65.2078 110.159L64.4141 105.602L66.2561 105.209C67.3441 104.977 68.0671 105.416 68.2442 106.433C68.316 106.727 68.3077 107.038 68.2202 107.327C68.1327 107.616 67.97 107.87 67.7525 108.056L68.8792 109.376L67.6906 109.629L66.8552 108.477ZM66.6675 107.572C66.7632 107.568 66.8567 107.54 66.9412 107.49C67.0257 107.44 67.099 107.37 67.1556 107.285C67.2123 107.199 67.2508 107.101 67.2683 106.997C67.2859 106.893 67.282 106.786 67.2569 106.683C67.1747 106.208 66.8678 106.024 66.4149 106.12L65.6202 106.29L65.8728 107.742L66.6675 107.572Z" fill="white"/>
<path d="M74.8782 104.879C75.0369 105.498 74.9748 106.161 74.7048 106.731C74.4348 107.301 73.9774 107.735 73.4269 107.943C72.8765 108.15 72.2749 108.117 71.7462 107.848C71.2175 107.58 70.8021 107.098 70.5854 106.5C70.1906 105.22 70.8168 103.926 72.0411 103.463C73.2724 102.998 74.4852 103.605 74.8782 104.879ZM71.6192 106.117C71.6668 106.286 71.744 106.443 71.8465 106.58C71.949 106.716 72.0748 106.828 72.2166 106.911C72.3585 106.993 72.5136 107.044 72.6732 107.06C72.8327 107.076 72.9936 107.057 73.1466 107.005C73.3862 106.929 73.5997 106.775 73.7597 106.564C73.9197 106.352 74.0188 106.092 74.0442 105.818C74.0697 105.544 74.0203 105.267 73.9025 105.024C73.7846 104.781 73.6037 104.583 73.383 104.454C73.1624 104.326 72.9121 104.274 72.6643 104.304C72.4166 104.335 72.1828 104.447 71.9931 104.626C71.8033 104.804 71.6663 105.042 71.5997 105.308C71.533 105.574 71.5398 105.855 71.6192 106.117Z" fill="white"/>
<path d="M80.8346 101.702C81.0712 102.29 81.0948 102.956 80.9007 103.563C80.7066 104.17 80.3095 104.671 79.7913 104.964C79.2731 105.256 78.6732 105.318 78.1153 105.135C77.5574 104.953 77.0839 104.541 76.7926 103.983C76.2369 102.778 76.691 101.398 77.8447 100.747C79.0033 100.094 80.2819 100.504 80.8346 101.702ZM77.7673 103.44C77.9064 103.764 78.1559 104.013 78.4609 104.132C78.7658 104.252 79.1012 104.233 79.3933 104.079C79.6205 103.966 79.812 103.78 79.943 103.546C80.074 103.311 80.1386 103.039 80.1284 102.763C80.1183 102.488 80.0338 102.222 79.886 102C79.7382 101.778 79.5337 101.611 79.2989 101.518C79.0641 101.426 78.8098 101.414 78.5686 101.483C78.3275 101.552 78.1105 101.7 77.9458 101.906C77.781 102.113 77.676 102.37 77.6442 102.643C77.6123 102.917 77.6552 103.194 77.7673 103.44Z" fill="white"/>
<path d="M48.3077 13.0947L48.0005 11.2929L46.2646 11.6543L46.5703 13.4562L45.5048 13.6784L44.7162 9.04094L45.7817 8.81883L46.1058 10.7266L47.8432 10.3652L47.5177 8.4574L48.5831 8.23514L49.373 12.8726L48.3077 13.0947Z" fill="white"/>
<path d="M52.8019 11.6065L52.5343 12.4936L51.4202 12.5603L53.0289 7.73428L54.1442 7.669L56.1688 12.2773L55.0129 12.347L54.6652 11.4961L52.8019 11.6065ZM53.6115 8.89585L53.0748 10.6787L54.3044 10.6047L53.6115 8.89585Z" fill="white"/>
<path d="M59.1721 12.4341L57.8232 7.60358L58.9766 7.69517L59.8412 11.2377L61.1495 7.86495L62.2597 7.95206L60.2888 12.5212L59.1721 12.4341Z" fill="white"/>
<path d="M65.7513 9.54911L65.5859 10.4667L67.5791 10.9052L67.4124 11.8301L65.4193 11.3901L65.2526 12.3208L67.5253 12.8217L67.3587 13.7466L64.0232 13.0105L64.8564 8.3905L68.125 9.11067L67.9584 10.0356L65.7513 9.54911Z" fill="white"/>
<path d="M71.4844 13.1034C71.4417 13.2636 71.357 13.4061 71.2411 13.513C71.1252 13.6199 70.9833 13.6864 70.8332 13.704C70.6832 13.7217 70.5318 13.6897 70.3982 13.6121C70.2646 13.5345 70.1548 13.4149 70.0826 13.2682C70.0105 13.1216 69.9793 12.9546 69.9929 12.7883C70.0066 12.622 70.0645 12.464 70.1593 12.3341C70.2542 12.2043 70.3817 12.1085 70.5257 12.0588C70.6698 12.0092 70.8239 12.0079 70.9686 12.0551C71.0666 12.0832 71.1582 12.1332 71.238 12.202C71.3177 12.2709 71.3838 12.3572 71.4321 12.4554C71.4805 12.5537 71.5101 12.662 71.519 12.7734C71.528 12.8849 71.5162 12.9972 71.4844 13.1034Z" fill="white"/>
<path d="M5.33333 41.7034C6.66973 41.7034 7.71801 41.9793 8.47816 42.531C9.25058 43.0705 9.63678 43.9165 9.63678 45.069C9.63678 45.7678 9.4774 46.3747 9.15862 46.8896C8.83985 47.4046 8.39234 47.8092 7.81609 48.1034C7.25211 48.3977 6.58391 48.5632 5.81149 48.6L5.55402 47.6805C6.44904 47.705 7.25211 47.8644 7.96322 48.1586C8.67433 48.4529 9.23831 48.8636 9.65517 49.3908C10.072 49.918 10.2805 50.5433 10.2805 51.2667C10.2805 51.9287 10.1579 52.4988 9.91264 52.977C9.66743 53.4429 9.3364 53.8291 8.91954 54.1356C8.50268 54.4299 8.03065 54.6506 7.50345 54.7977C6.97625 54.9326 6.43065 55 5.86667 55H1.91264V41.7034H5.33333ZM5.70115 47.5333C6.43678 47.5333 6.97011 47.331 7.30115 46.9264C7.63218 46.5096 7.7977 46.0069 7.7977 45.4184C7.7977 44.7195 7.58314 44.2107 7.15402 43.8919C6.7249 43.5732 6.14866 43.4138 5.42529 43.4138H3.69655V47.5333H5.70115ZM5.77471 53.3448C6.26513 53.3448 6.71264 53.2713 7.11724 53.1241C7.5341 52.977 7.859 52.7502 8.09195 52.4437C8.33716 52.1372 8.45977 51.751 8.45977 51.285C8.45977 50.7701 8.31877 50.3655 8.03678 50.0713C7.76705 49.777 7.41762 49.5686 6.98851 49.446C6.55939 49.3111 6.11801 49.2437 5.66437 49.2437H3.69655V53.3448H5.77471ZM13.5088 55L19.3203 41.1517H19.4306L25.2237 55H23.1823L18.8421 43.9471L20.1111 43.1195L15.2559 55H13.5088ZM16.9111 49.9609H21.8582L22.4467 51.5057H16.3961L16.9111 49.9609ZM33.0981 41.7034C33.7725 41.7034 34.3916 41.7954 34.9556 41.9793C35.5318 42.151 36.0284 42.4146 36.4453 42.7701C36.8744 43.1134 37.2054 43.5425 37.4384 44.0575C37.6836 44.5601 37.8062 45.1487 37.8062 45.823C37.8062 46.3502 37.7265 46.8651 37.5671 47.3678C37.42 47.8705 37.1686 48.3303 36.8131 48.7471C36.4575 49.1517 35.9916 49.4828 35.4154 49.7402C34.8514 49.9854 34.1525 50.108 33.3188 50.108H31.351V55H29.5671V41.7034H33.0981ZM33.282 48.3977C33.8092 48.3977 34.2445 48.318 34.5878 48.1586C34.9433 47.9992 35.2192 47.7969 35.4154 47.5517C35.6115 47.2942 35.7525 47.0184 35.8384 46.7241C35.9242 46.4299 35.9671 46.154 35.9671 45.8965C35.9671 45.6268 35.9181 45.351 35.82 45.069C35.7341 44.7747 35.587 44.505 35.3786 44.2598C35.1824 44.0146 34.9188 43.8123 34.5878 43.6529C34.269 43.4935 33.8767 43.4138 33.4108 43.4138H31.351V48.3977H33.282ZM35.4705 49.4092L38.9464 55H36.8866L33.3556 49.4644L35.4705 49.4092ZM46.9497 41.7034C48.2861 41.7034 49.3344 41.9793 50.0945 42.531C50.867 43.0705 51.2532 43.9165 51.2532 45.069C51.2532 45.7678 51.0938 46.3747 50.775 46.8896C50.4562 47.4046 50.0087 47.8092 49.4325 48.1034C48.8685 48.3977 48.2003 48.5632 47.4279 48.6L47.1704 47.6805C48.0654 47.705 48.8685 47.8644 49.5796 48.1586C50.2907 48.4529 50.8547 48.8636 51.2716 49.3908C51.6884 49.918 51.8968 50.5433 51.8968 51.2667C51.8968 51.9287 51.7742 52.4988 51.529 52.977C51.2838 53.4429 50.9528 53.8291 50.5359 54.1356C50.1191 54.4299 49.647 54.6506 49.1198 54.7977C48.5926 54.9326 48.047 55 47.483 55H43.529V41.7034H46.9497ZM47.3175 47.5333C48.0532 47.5333 48.5865 47.331 48.9175 46.9264C49.2486 46.5096 49.4141 46.0069 49.4141 45.4184C49.4141 44.7195 49.1995 44.2107 48.7704 43.8919C48.3413 43.5732 47.765 43.4138 47.0417 43.4138H45.3129V47.5333H47.3175ZM47.3911 53.3448C47.8815 53.3448 48.329 53.2713 48.7336 53.1241C49.1505 52.977 49.4754 52.7502 49.7083 52.4437C49.9535 52.1372 50.0761 51.751 50.0761 51.285C50.0761 50.7701 49.9352 50.3655 49.6532 50.0713C49.3834 49.777 49.034 49.5686 48.6049 49.446C48.1758 49.3111 47.7344 49.2437 47.2807 49.2437H45.3129V53.3448H47.3911ZM56.7366 41.7034H65.3803V43.4138H58.5205V47.4598H64.6447V49.1701H58.5205V53.2896H65.6378V55H56.7366V41.7034ZM74.1039 41.7034C74.7782 41.7034 75.3974 41.7954 75.9614 41.9793C76.5376 42.151 77.0341 42.4146 77.451 42.7701C77.8801 43.1134 78.2112 43.5425 78.4441 44.0575C78.6893 44.5601 78.8119 45.1487 78.8119 45.823C78.8119 46.3502 78.7322 46.8651 78.5728 47.3678C78.4257 47.8705 78.1744 48.3303 77.8188 48.7471C77.4633 49.1517 76.9974 49.4828 76.4211 49.7402C75.8571 49.9854 75.1583 50.108 74.3246 50.108H72.3568V55H70.5728V41.7034H74.1039ZM74.2878 48.3977C74.815 48.3977 75.2502 48.318 75.5935 48.1586C75.9491 47.9992 76.225 47.7969 76.4211 47.5517C76.6173 47.2942 76.7583 47.0184 76.8441 46.7241C76.9299 46.4299 76.9728 46.154 76.9728 45.8965C76.9728 45.6268 76.9238 45.351 76.8257 45.069C76.7399 44.7747 76.5928 44.505 76.3843 44.2598C76.1882 44.0146 75.9246 43.8123 75.5935 43.6529C75.2748 43.4935 74.8824 43.4138 74.4165 43.4138H72.3568V48.3977H74.2878ZM76.4763 49.4092L79.9522 55H77.8924L74.3614 49.4644L76.4763 49.4092ZM84.5348 41.7034H86.3187V55H84.5348V41.7034ZM90.6532 55L96.4647 41.1517H96.575L102.368 55H100.327L95.9865 43.9471L97.2555 43.1195L92.4003 55H90.6532ZM94.0555 49.9609H99.0026L99.5911 51.5057H93.5405L94.0555 49.9609ZM118.224 55.423L107.944 44.9954L108.459 45.1241L108.495 55H106.711V41.2988H106.803L116.974 51.7632L116.551 51.6713L116.514 41.7034H118.279V55.423H118.224Z" fill="#F2C94C"/>
<path d="M61.2379 84.5152C66.5444 84.5152 66.9734 91.5106 71.7153 91.5106C75.5495 91.5106 75.0903 87.104 75.0903 87.104C76.9465 91.3585 74.8515 95.565 69.7826 96.692C63.4094 98.1071 57.4037 93.4317 57.4037 89.0956C57.4037 86.3317 59.3352 84.5152 61.2379 84.5152Z" fill="white"/>
<path d="M54.2316 84.5152C48.9262 84.5152 48.495 91.5106 43.7554 91.5106C39.9212 91.5106 40.3791 87.104 40.3791 87.104C38.5253 91.3585 40.6168 95.565 45.6868 96.692C52.0601 98.1071 58.0646 93.4317 58.0646 89.0956C58.0646 86.3317 56.1332 84.5152 54.2316 84.5152Z" fill="white"/>
<path d="M40.4393 74.3527H9.80603V76.009H40.4393V74.3527Z" fill="white"/>
<path d="M105.423 74.3527H74.7884V76.009H105.423V74.3527Z" fill="white"/>
<path d="M105.172 30.0907C105.172 30.0907 104.903 29.6891 104.397 28.9361C103.882 28.1917 103.179 27.0496 102.146 25.7282C101.632 25.0652 101.108 24.2933 100.457 23.5256C99.8071 22.7587 99.1057 21.9313 98.353 21.0432C97.556 20.2096 96.7094 19.3243 95.8135 18.3874C94.8662 17.519 93.9029 16.5651 92.8522 15.6327C90.5737 13.649 88.1654 11.8551 85.647 10.2656C82.8457 8.48775 79.9182 6.96529 76.8935 5.71334C73.6646 4.36814 70.3334 3.34544 66.9398 2.65752C59.917 1.26648 52.7267 1.26692 45.7041 2.65885C42.3105 3.34675 38.9794 4.36936 35.7505 5.7144C32.7264 6.96743 29.7992 8.4902 26.9978 10.2677C24.4794 11.8569 22.071 13.6505 19.7923 15.6339C18.7418 16.5666 17.7778 17.5195 16.8314 18.3889C15.9371 19.3239 15.0905 20.2091 14.2917 21.0444C13.5404 21.9303 12.839 22.7576 12.1872 23.5263C11.5366 24.2941 11.0105 25.0675 10.4964 25.7307C9.46229 27.0542 8.76237 28.191 8.24721 28.936C7.74105 29.6891 7.47125 30.0907 7.47125 30.0907C7.47125 30.0907 7.72022 29.6732 8.18701 28.8902C8.66817 28.1184 9.29689 26.921 10.2907 25.552C10.7808 24.8632 11.2816 24.0602 11.9059 23.2586C12.5312 22.4563 13.2059 21.5908 13.9299 20.6618C14.7024 19.7838 15.5228 18.8513 16.3911 17.8643C17.313 16.9432 18.2763 15.9624 19.3156 14.9843C21.581 12.9067 23.9825 11.0179 26.5003 9.33323C29.3031 7.42441 32.261 5.80946 35.3354 4.5094C38.6217 3.10514 42.0151 2.02929 45.4749 1.29477C52.638 -0.259217 60.0056 -0.258739 67.1686 1.29613C70.6283 2.03056 74.0217 3.10627 77.308 4.51043C80.3818 5.8116 83.3394 7.42688 86.1424 9.33532C88.6602 11.0197 91.0617 12.9083 93.3272 14.9856C94.3663 15.9639 95.3303 16.9437 96.2513 17.8658C97.1181 18.8507 97.9386 19.7831 98.7127 20.663C99.4353 21.5897 100.11 22.4551 100.737 23.2593C101.361 24.0608 101.864 24.8656 102.354 25.5545C103.349 26.9256 103.974 28.1177 104.456 28.89C104.923 29.6731 105.172 30.0907 105.172 30.0907Z" fill="white"/>
<path d="M84.5972 30.0907C84.5972 30.0907 83.8403 29.4188 82.4668 28.3338C81.7911 27.7787 80.9335 27.1607 79.9466 26.4634C78.9428 25.7936 77.7966 25.0722 76.5236 24.3358C75.149 23.5567 73.7368 22.8617 72.2934 22.254C70.6862 21.5798 69.0479 21.0004 67.3853 20.5181C60.1262 18.4668 52.5176 18.4672 45.2587 20.5191C43.5965 21.0025 41.9584 21.5824 40.3513 22.2562C38.9077 22.8637 37.4955 23.5584 36.1209 24.3373C34.8478 25.0733 33.7022 25.7958 32.6979 26.4647C31.7113 27.1615 30.8531 27.7794 30.176 28.3356C28.8032 29.4199 28.0464 30.0907 28.0464 30.0907C28.0464 30.0907 28.2226 29.9075 28.5527 29.5639C28.8881 29.2269 29.3533 28.6944 30.0152 28.1074C30.6555 27.4901 31.4724 26.7952 32.4191 26.0052C32.9055 25.6301 33.4221 25.2317 33.969 24.8101C34.5332 24.4205 35.1275 24.0095 35.759 23.6026C38.6517 21.7485 41.7395 20.2949 44.9529 19.2747C52.3804 16.9013 60.2633 16.9017 67.6907 19.2758C70.9033 20.2977 73.9908 21.7512 76.884 23.6039C77.5153 24.0112 78.1103 24.4209 78.6737 24.8119C79.2195 25.2325 79.7362 25.6307 80.2239 26.0065C81.1704 26.7959 81.9877 27.491 82.6296 28.1092C83.2928 28.6972 83.7546 29.2267 84.0907 29.5639L84.5972 30.0907Z" fill="white"/>
<path d="M20.7542 85.0377L19.8366 85.1534C19.8273 84.6264 19.7091 84.1087 19.4911 83.6401C19.345 83.3819 19.16 83.2674 18.9878 83.3884C18.3741 83.8158 19.9044 85.646 18.6228 86.5393C17.9133 87.0329 17.1429 86.5992 16.6454 85.7253C16.2783 85.0718 16.1185 84.3015 16.1914 83.5363L17.1052 83.4387C17.0211 84.0522 17.1179 84.6794 17.381 85.2273C17.5601 85.5422 17.7779 85.6642 17.9802 85.5229C18.6083 85.0849 17.0529 83.2717 18.3092 82.3967C18.9636 81.9405 19.7331 82.2735 20.2693 83.2149C20.5807 83.7609 20.7486 84.3921 20.7542 85.0377Z" fill="white"/>
<path d="M21.5023 92.8302L23.5843 90.8832L21.1713 91.6746L20.7242 91.0866L21.8411 88.5912L19.7552 90.533L19.1426 89.7265L22.3551 86.7353L23.1072 87.7248L21.9282 90.4676L24.5726 89.6515L25.3208 90.6347L22.1082 93.626L21.5023 92.8302Z" fill="white"/>
<path d="M24.2261 95.9104L27.0843 92.525L27.8625 93.3293L25.0042 96.7147L24.2261 95.9104Z" fill="white"/>
<path d="M30.7305 97.1624L28.7085 100.099L27.8607 99.3836L29.8826 96.448L28.8866 95.6084L29.4093 94.849L32.2579 97.2512L31.7352 98.0094L30.7305 97.1624Z" fill="white"/>
<path d="M34.2944 104.102L35.1094 102.542L33.6052 101.581L32.7903 103.142L31.8668 102.553L33.9634 98.5343L34.8867 99.1243L34.0244 100.777L35.5285 101.738L36.3909 100.085L37.3143 100.675L35.2178 104.692L34.2944 104.102Z" fill="white"/>
<path d="M84.478 99.6814L84.3754 100.594L84.9659 101.526L84.0938 102.202L81.6914 98.4068L82.5635 97.731L83.603 99.374L83.876 96.7125L84.8855 95.9297L84.6078 98.4904L87.3721 99.6609L86.3287 100.47L84.478 99.6814Z" fill="white"/>
<path d="M90.8711 94.9711L91.4712 95.7048L89.3592 97.8189L86.5425 94.3746L87.3343 93.5831L89.5509 96.2938L90.8711 94.9711Z" fill="white"/>
<path d="M94.7013 91.8664L94.0053 92.7489L93.0093 91.7882L89.8317 90.9956L90.5314 90.1078L92.5708 90.5919L91.8449 88.4424L92.5447 87.5545L93.683 90.8832L94.7013 91.8664Z" fill="white"/>
<path d="M98.8381 85.6503L95.6187 85.8614L97.7763 87.4336L97.2255 88.3588L93.7217 85.8056L94.2394 84.9359L97.4665 84.7228L95.3041 83.1464L95.852 82.2275L99.3559 84.7806L98.8381 85.6503Z" fill="white"/>
<path d="M47.7582 72.8117L47.2456 73.9882C46.725 73.6401 46.1392 73.4287 45.5333 73.3704C45.1825 73.3704 44.9447 73.5137 44.9447 73.8017C44.9447 74.825 47.7739 74.2416 47.7739 76.381C47.7739 77.5661 46.8255 78.1915 45.6327 78.1915C44.7448 78.1856 43.8841 77.8524 43.1865 77.2447L43.7148 76.0856C44.2563 76.6038 44.9343 76.9154 45.6483 76.9741C46.0761 76.9741 46.3441 76.7962 46.3441 76.4576C46.3441 75.4084 43.516 76.0349 43.516 73.9376C43.516 72.8463 44.3638 72.153 45.6483 72.153C46.3932 72.1523 47.1236 72.3803 47.7582 72.8117Z" fill="white"/>
<path d="M54.3832 78.1408V75.8397H52.1661V78.1408H50.8057V72.2197H52.1661V74.6557H54.3832V72.2197H55.7438V78.1408H54.3832Z" fill="white"/>
<path d="M64.5392 75.1723C64.5392 76.8976 63.3006 78.2088 61.6418 78.2088C59.991 78.2088 58.7523 76.9062 58.7523 75.1723C58.7523 73.4469 59.991 72.1691 61.6418 72.1691C63.3006 72.1691 64.5392 73.4555 64.5392 75.1723ZM60.144 75.1809C60.1331 75.6373 60.2863 76.0798 60.5701 76.4112C60.8539 76.7426 61.245 76.9358 61.6575 76.9482C61.975 76.9655 62.2899 76.8773 62.5617 76.6948C62.8335 76.5124 63.0497 76.2441 63.1824 75.9245C63.3152 75.6049 63.3584 75.2486 63.3065 74.9016C63.2547 74.5546 63.1101 74.2327 62.8915 73.9773C62.6728 73.722 62.3901 73.545 62.0797 73.469C61.7693 73.3931 61.4455 73.4217 61.1499 73.5511C60.8543 73.6806 60.6006 73.905 60.4213 74.1955C60.242 74.486 60.1455 74.8292 60.144 75.1809Z" fill="white"/>
<path d="M69.8787 72.2197C71.247 72.2197 72.0344 72.9649 72.0344 74.2837C72.0344 75.6714 71.247 76.4749 69.8787 76.4749H68.908V78.1408H67.5475V72.2197H69.8787ZM68.908 75.2908H69.8104C70.4069 75.2908 70.751 74.9609 70.751 74.3344C70.751 73.7176 70.4069 73.4048 69.8104 73.4048H68.908V75.2908Z" fill="white"/>
<path d="M22.3386 21.7406L22.3268 22.8166C22.1236 22.7676 21.9133 22.7674 21.71 22.8159C21.5068 22.8645 21.3153 22.9607 21.1485 23.0981C20.9115 23.3365 20.7666 23.6666 20.7437 24.0201C20.7208 24.3736 20.8218 24.7232 21.0258 24.9964C21.2297 25.2697 21.5208 25.4456 21.8388 25.4876C22.1568 25.5297 22.4773 25.4346 22.7336 25.2222C23.0335 24.9155 23.2152 24.4929 23.2414 24.0419L24.156 24.1681C24.1027 24.902 23.7941 25.5844 23.2951 26.0716C23.0752 26.2852 22.8185 26.4475 22.5405 26.5488C22.2625 26.65 21.9689 26.6881 21.6773 26.6608C21.3856 26.6336 21.102 26.5414 20.8433 26.3899C20.5847 26.2385 20.3563 26.0308 20.1719 25.7793C19.9875 25.5279 19.8508 25.2378 19.7701 24.9265C19.6894 24.6153 19.6664 24.2891 19.7023 23.9677C19.7382 23.6464 19.8324 23.3363 19.9792 23.0562C20.126 22.776 20.3224 22.5315 20.5566 22.3374C21.0576 21.889 21.697 21.6749 22.3386 21.7406Z" fill="white"/>
<path d="M28.5987 19.3538C29.2207 20.3904 28.9911 21.5026 27.9991 22.2329C27.0018 22.9646 25.9704 22.7788 25.3472 21.7421L23.9825 19.4669L24.8839 18.8049L26.2487 21.0801C26.3072 21.198 26.3877 21.3008 26.4848 21.3818C26.5819 21.4627 26.6935 21.5199 26.8121 21.5495C26.9307 21.5792 27.0536 21.5806 27.1727 21.5537C27.2919 21.5269 27.4045 21.4723 27.5031 21.3936C27.6049 21.3235 27.6919 21.23 27.7582 21.1194C27.8245 21.0089 27.8686 20.8838 27.8875 20.7528C27.9064 20.6218 27.8997 20.4878 27.8678 20.3599C27.8359 20.232 27.7795 20.1131 27.7025 20.0114L26.3379 17.7364L27.2341 17.0787L28.5987 19.3538Z" fill="white"/>
<path d="M31.9223 15.2783L33.4983 18.6002L32.539 19.1577L30.9632 15.8344L29.836 16.4892L29.4279 15.6297L32.6532 13.7582L33.06 14.6177L31.9223 15.2783Z" fill="white"/>
<path d="M37.2483 14.6613C37.3072 14.8152 37.3235 14.9851 37.2952 15.1493C37.2669 15.3135 37.1952 15.4648 37.0892 15.584C36.9833 15.7031 36.8477 15.7849 36.6998 15.8188C36.5518 15.8528 36.3981 15.8375 36.258 15.7748C36.1179 15.7121 35.9978 15.6048 35.9128 15.4666C35.8277 15.3283 35.7817 15.1653 35.7804 14.9981C35.7791 14.831 35.8226 14.6671 35.9054 14.5273C35.9883 14.3874 36.1067 14.2779 36.2458 14.2125C36.3378 14.1653 36.4376 14.1394 36.5389 14.1366C36.6403 14.1337 36.7411 14.154 36.8351 14.1961C36.9291 14.2381 37.0143 14.3011 37.0854 14.3812C37.1564 14.4612 37.2119 14.5565 37.2483 14.6613Z" fill="white"/>
<path d="M42.1219 10.2693L41.9894 11.2987C41.5183 11.174 41.0278 11.17 40.5552 11.2871C40.2875 11.3814 40.1393 11.5543 40.2022 11.7719C40.4254 12.5488 42.4447 11.3509 42.9118 12.9756C43.1703 13.8743 42.5865 14.6018 41.6824 14.9211C41.0068 15.1532 40.2806 15.1297 39.6184 14.8544L39.7666 13.8351C40.2907 14.0834 40.8732 14.1384 41.4277 13.9919C41.7532 13.8773 41.9172 13.6711 41.8437 13.414C41.6141 12.6185 39.6039 13.8496 39.1459 12.2569C38.9084 11.4294 39.4018 10.6758 40.3754 10.3332C40.941 10.1337 41.5456 10.1116 42.1219 10.2693Z" fill="white"/>
<path d="M76.3457 13.0438L75.0899 16.5313L74.0835 16.087L75.3392 12.5996L74.1569 12.0784L74.4811 11.1768L77.8651 12.6693L77.5397 13.5709L76.3457 13.0438Z" fill="white"/>
<path d="M80.5181 17.9062L80.4919 17.8903L79.7662 17.4648L79.2047 18.6365L78.2493 18.0747L80.2438 13.9136L81.9248 14.9008C82.9193 15.4845 83.237 16.3411 82.7934 17.2688C82.6808 17.552 82.4949 17.7919 82.2594 17.9585C82.0238 18.1252 81.7489 18.211 81.4694 18.2053L81.6007 20.0419L80.5155 19.406L80.5181 17.9062ZM80.8908 17.0583C80.9688 17.1223 81.0588 17.166 81.1542 17.1863C81.2496 17.2066 81.3478 17.2028 81.4417 17.1754C81.5356 17.1479 81.6227 17.0974 81.6966 17.0276C81.7704 16.9578 81.8291 16.8705 81.8683 16.7722C81.9185 16.6815 81.9495 16.5795 81.959 16.4737C81.9686 16.3679 81.9564 16.2611 81.9235 16.1612C81.8906 16.0613 81.8378 15.9709 81.7689 15.8967C81.7001 15.8225 81.617 15.7665 81.5258 15.7327L80.8016 15.3074L80.1651 16.633L80.8908 17.0583Z" fill="white"/>
<path d="M83.6061 21.4183L85.9168 17.4648L86.8262 18.1139L84.5153 22.0687L83.6061 21.4183Z" fill="white"/>
<path d="M89.5805 26.1747L91.2824 23.7559L89.032 25.1018L88.4756 24.6197L89.1133 21.8786L87.4062 24.2945L86.6438 23.634L89.2733 19.9127L90.2089 20.7229L89.5568 23.7254L92.0329 22.2996L92.9631 23.1054L90.3336 26.8266L89.5805 26.1747Z" fill="white"/>
</svg>
